<?xml version="1.0" standalone="no"?>
<!DOCTYPE svg PUBLIC "-//W3C//DTD SVG 20010904//EN"
 "http://www.w3.org/TR/2001/REC-SVG-20010904/DTD/svg10.dtd">
<svg version="1.0" xmlns="http://www.w3.org/2000/svg"
 width="188.000000pt" height="188.000000pt" viewBox="0 0 188.000000 188.000000"
 preserveAspectRatio="xMidYMid meet">

<g transform="translate(0.000000,188.000000) scale(0.100000,-0.100000)"
fill="#000000" stroke="none">
<path d="M958 1301 c-43 -14 -95 -49 -124 -84 -25 -30 -25 -32 -7 -40 15 -6
30 -2 59 18 46 31 92 30 148 -4 l35 -22 -55 -92 c-30 -51 -62 -107 -72 -125
-9 -18 -22 -30 -28 -28 -7 3 -25 -17 -43 -47 -16 -29 -59 -104 -95 -166 -36
-63 -66 -125 -66 -138 0 -32 34 -63 68 -63 37 0 55 21 129 150 101 176 113
199 107 214 -3 7 13 43 35 79 22 36 49 82 60 104 37 70 33 69 94 34 30 -17 58
-31 63 -31 9 1 68 110 62 115 -2 1 -53 30 -115 65 -94 52 -121 62 -170 66 -32
2 -70 -1 -85 -5z"/>
<path d="M513 993 c-147 -87 -147 -90 -10 -171 147 -86 146 -85 163 -71 31 25
15 46 -76 100 -49 29 -89 53 -87 55 1 1 42 25 90 54 73 42 88 55 85 73 -6 40
-46 30 -165 -40z"/>
<path d="M1344 1015 c-11 -28 4 -43 90 -91 47 -27 86 -51 86 -54 0 -3 -36 -25
-80 -50 -90 -49 -105 -63 -96 -85 12 -31 37 -26 136 30 173 97 180 111 77 166
-34 18 -87 48 -117 66 -60 36 -87 41 -96 18z"/>
</g>
</svg>
